<?xml version="1.0" standalone="no"?>
<!DOCTYPE svg PUBLIC "-//W3C//DTD SVG 20010904//EN"
 "http://www.w3.org/TR/2001/REC-SVG-20010904/DTD/svg10.dtd">
<svg version="1.0" xmlns="http://www.w3.org/2000/svg"
 width="512.000000pt" height="512.000000pt" viewBox="0 0 512.000000 512.000000"
 preserveAspectRatio="xMidYMid meet">
<metadata>
Created by potrace 1.14, written by Peter Selinger 2001-2017
</metadata>
<g transform="translate(0.000000,512.000000) scale(0.100000,-0.100000)"
fill="#000000" stroke="none">
<path d="M3910 4139 c-223 -25 -421 -100 -570 -214 -117 -90 -200 -207 -247
-350 -24 -71 -27 -96 -27 -220 -1 -247 53 -395 198 -541 140 -140 283 -220
689 -385 257 -104 388 -170 484 -243 136 -104 178 -191 178 -371 0 -99 -3
-116 -28 -169 -39 -85 -90 -142 -173 -196 -134 -88 -321 -128 -544 -116 -267
13 -450 78 -685 244 l-70 49 -102 -171 c-57 -94 -103 -174 -103 -178 0 -12
164 -111 256 -154 110 -51 282 -105 414 -129 143 -26 464 -32 608 -11 336 50
579 186 726 410 105 159 142 300 133 511 -9 239 -73 383 -239 541 -138 132
-338 241 -713 389 -245 97 -305 126 -417 197 -130 83 -181 155 -198 280 -19
133 14 231 105 317 204 193 655 213 1089 47 38 -14 97 -41 132 -60 l63 -33 72
166 c39 91 74 172 76 178 11 27 -309 145 -492 182 -195 39 -432 51 -615 30z"/>
<path d="M70 2560 l0 -1540 195 0 195 0 0 1267 c0 696 3 1263 8 1259 4 -4 312
-573 684 -1264 l677 -1257 275 -3 276 -2 0 1540 0 1540 -200 0 -200 0 -2
-1276 -3 -1276 -676 1273 -675 1274 -277 3 -277 2 0 -1540z"/>
</g>
</svg>
